{
  "title": "Lost complete Season 5 by Bzingaz (RiddlerA)",
  "uid": 7432580,
  "size": 2277631282,
  "categoryP": "video",
  "categoryS": "tv_shows",
  "magnet": "?xt=urn:btih:3ccd3a5ceb831d9ab9dd2187388eb7722e4c76b2&amp;dn=Lost+complete+Season+5+by+Bzingaz+%28RiddlerA%29&amp;tr=udp%3A%2F%2Ftracker.openbittorrent.com%3A80&amp;tr=udp%3A%2F%2Fopen.demonii.com%3A1337&amp;tr=udp%3A%2F%2Ftracker.coppersurfer.tk%3A6969&amp;tr=udp%3A%2F%2Fexodus.desync.com%3A6969",
  "seeders": 52,
  "leechers": 18,
  "uploader": "bzingaz",
  "files": -1,
  "time": 1341983317,
  "description": "Lost Complete Season 5 (Extras removed)\n\nThe Greatest Tv Show ever\n\nSmall Size, Excellent Quality\n\nDetails of one of files:\n &lt;a href=&quot;\nhttp://img120.pixroute.com/i/00286/jl4b6ptdrhpf_t.jpg&quot; rel=&quot;nofollow&quot; target=&quot;_NEW&quot;&gt;\nhttp://img120.pixroute.com/i/00286/jl4b6ptdrhpf_t.jpg&lt;/a&gt;\n &lt;a href=&quot;\nhttp://img120.pixroute.com/i/00286/gmfv2kv3utj7_t.jpg&quot; rel=&quot;nofollow&quot; target=&quot;_NEW&quot;&gt;\nhttp://img120.pixroute.com/i/00286/gmfv2kv3utj7_t.jpg&lt;/a&gt;\n\n\nLost - [5x00] - Destiny Calls.mkv\n\nFormat                           : Matroska\nFile size                        : 140 MiB\nDuration                         : 42mn 14s\nOverall bit rate                 : 462 Kbps\n\nVideo\nID                               : 1\nFormat                           : AVC\nFormat/Info                      : Advanced Video Codec\nFormat profile                   : &lt;a class=&quot;__cf_email__&quot; href=&quot;/cdn-cgi/l/email-protection&quot; data-cfemail=&quot;afe7c6c8c7efe39c819f&quot;&gt;[email&amp;#160;protected]&lt;/a&gt;&lt;script cf-hash='f9e31' type=&quot;text/javascript&quot;&gt;\n/* &lt;![CDATA[ */!function(){try{var t=&quot;currentScript&quot;in document?document.currentScript:function(){for(var t=document.getElementsByTagName(&quot;script&quot;),e=t.length;e--;)if(t[e].getAttribute(&quot;cf-hash&quot;))return t[e]}();if(t&amp;&amp;t.previousSibling){var e,r,n,i,c=t.previousSibling,a=c.getAttribute(&quot;data-cfemail&quot;);if(a){for(e=&quot;&quot;,r=parseInt(a.substr(0,2),16),n=2;a.length-n;n+=2)i=parseInt(a.substr(n,2),16)^r,e+=String.fromCharCode(i);e=document.createTextNode(e),c.parentNode.replaceChild(e,c)}}}catch(u){}}();/* ]]&gt; */&lt;/script&gt;\nFormat settings, CABAC           : Yes\nFormat settings, ReFrames        : 5 frames\nCodec ID                         : V_MPEG4/ISO/AVC\nDuration                         : 42mn 14s\nBit rate                         : 410 Kbps\nWidth                            : 640 pixels\nHeight                           : 352 pixels\nDisplay aspect ratio             : 16:9\nOriginal display aspect ratio    : 16:9\nFrame rate                       : 29.970 fps\nColor space                      : YUV\nChroma subsampling               : 4:2:0\nBit depth                        : 8 bits\nScan type                        : Progressive\nBits/(Pixel*Frame)               : 0.061\nStream size                      : 122 MiB (88%)\n\nAudio\nID                               : 2\nFormat                           : MPEG Audio\nFormat version                   : Version 1\nFormat profile                   : Layer 3\nMode                             : Joint stereo\nMode extension                   : MS Stereo\nCodec ID                         : A_MPEG/L3\nCodec ID/Hint                    : MP3\nDuration                         : 42mn 14s\nBit rate mode                    : Constant\nBit rate                         : 48.0 Kbps\nChannel(s)                       : 2 channels\nSampling rate                    : 44.1 KHz\nCompression mode                 : Lossy\nStream size                      : 14.5 MiB (10%)\n\n\nPlease Seed After Downloading\n\n\nNote : this is the same torrent as Lost Season 5 without Extra, Bloopers, Deleted Scenes by RiddlerA .i have uploaded this as for reseed purpose..",
  "parsed": {
    "xt": "urn:btih:3ccd3a5ceb831d9ab9dd2187388eb7722e4c76b2",
    "dn": "Lost complete Season 5 by Bzingaz (RiddlerA)",
    "tr": [
      "udp://exodus.desync.com:6969",
      "udp://open.demonii.com:1337",
      "udp://tracker.coppersurfer.tk:6969",
      "udp://tracker.openbittorrent.com:80"
    ],
    "infoHash": "3ccd3a5ceb831d9ab9dd2187388eb7722e4c76b2",
    "infoHashBuffer": {
      "type": "Buffer",
      "data": [
        60,
        205,
        58,
        92,
        235,
        131,
        29,
        154,
        185,
        221,
        33,
        135,
        56,
        142,
        183,
        114,
        46,
        76,
        118,
        178
      ]
    },
    "name": "Lost complete Season 5 by Bzingaz (RiddlerA)",
    "announce": [
      "udp://exodus.desync.com:6969",
      "udp://open.demonii.com:1337",
      "udp://tracker.coppersurfer.tk:6969",
      "udp://tracker.openbittorrent.com:80"
    ],
    "urlList": []
  },
  "previous": 70,
  "peers": 11,
  "last_updated": "2016-12-24T22:46:18.379Z"
}